<svg width="23" height="24" viewBox="0 0 23 24" fill="none" xmlns="http://www.w3.org/2000/svg">
<path d="M10.195 5.90709L7.79597 8.35906C7.2171 8.95093 6.27336 8.95967 5.68285 8.38006C5.09474 7.80286 5.08598 6.85574 5.66181 6.26692L5.66183 6.26691L10.6191 1.19865C10.6191 1.19863 10.6192 1.19861 10.6192 1.19859C10.8999 0.911441 11.2849 0.75 11.685 0.75C12.0851 0.75 12.4701 0.911441 12.7508 1.19859C12.7508 1.19861 12.7509 1.19863 12.7509 1.19865L17.7077 6.26646L10.195 5.90709ZM10.195 5.90709V16.0705C10.195 16.8952 10.8632 17.5651 11.6875 17.5651C12.5118 17.5651 13.1799 16.8952 13.1799 16.0705V5.90748L15.5764 8.35901L15.5765 8.35908C15.869 8.65811 16.2574 8.80765 16.6423 8.80765C17.0186 8.80765 17.3977 8.66403 17.6871 8.38009L17.6872 8.38006C18.2745 7.80358 18.2872 6.85645 17.7082 6.26691L10.195 5.90709ZM22.62 22.1594V15.3809C22.62 14.5562 21.9519 13.8862 21.1276 13.8862C20.3032 13.8862 19.6351 14.5562 19.6351 15.3809V20.6647H3.73488V15.3809C3.73488 14.5562 3.06676 13.8862 2.24244 13.8862C1.41812 13.8862 0.75 14.5562 0.75 15.3809V22.1594C0.75 22.9841 1.41812 23.654 2.24244 23.654H21.1276C21.9519 23.654 22.62 22.9841 22.62 22.1594Z" fill="#202020" stroke="black" stroke-width="0.5"/>
</svg>
