<svg width="38" height="40" viewBox="0 0 38 40" fill="none" xmlns="http://www.w3.org/2000/svg">
<path d="M18.7962 39.7135C28.9834 39.7135 37.2428 30.9116 37.2428 20.0552C37.2428 9.19884 28.9834 0.396973 18.7962 0.396973C8.60896 0.396973 0.349609 9.19884 0.349609 20.0552C0.349609 30.9116 8.60896 39.7135 18.7962 39.7135Z" fill="black"/>
<path fill-rule="evenodd" clip-rule="evenodd" d="M18.8088 27.0701C21.7278 27.0701 24.651 27.0701 27.57 27.0701C28.2141 27.0701 28.7703 26.4863 28.7744 25.8133C28.7744 22.8987 28.7744 19.984 28.7744 17.0739C28.7744 16.6237 28.6657 16.5569 28.2726 16.7574C28.2224 16.7842 28.1764 16.8109 28.1262 16.8376C25.4079 18.3841 22.6855 19.9306 19.9714 21.4859C19.181 21.9405 18.4199 21.945 17.6253 21.4904C14.8903 19.9216 12.1511 18.3663 9.41196 16.8109C8.92267 16.5301 8.81396 16.597 8.81396 17.1674C8.81396 20.0241 8.81396 22.8809 8.81396 25.7331C8.81396 26.513 9.3409 27.0746 10.0727 27.0746C12.9876 27.0701 15.8982 27.0701 18.8088 27.0701Z" fill="white"/>
<path fill-rule="evenodd" clip-rule="evenodd" d="M18.7961 13.036C15.6805 13.036 12.5608 13.036 9.44523 13.036C9.21941 13.036 8.95173 13.0226 8.89319 13.29C8.85137 13.4861 8.8932 13.7803 9.01448 13.9273C9.24031 14.1992 9.52465 14.4398 9.82157 14.6181C12.3809 16.1333 14.9528 17.6218 17.5164 19.1326C18.3779 19.6407 19.2142 19.6585 20.0715 19.1326C20.5859 18.8162 21.1087 18.5221 21.6273 18.219C23.7392 16.9801 25.8552 15.7412 27.9713 14.5067C28.3184 14.3061 28.6069 14.0477 28.7282 13.6287C28.8119 13.348 28.6822 13.1073 28.4104 13.0538C28.2933 13.0315 28.1678 13.0405 28.0507 13.0405C24.9645 13.036 21.8824 13.036 18.7961 13.036Z" fill="white"/>
</svg>
