<svg width="38" height="38" viewBox="0 0 38 38" fill="none" xmlns="http://www.w3.org/2000/svg">
<path d="M38 8.2007V29.7993C38 34.3085 34.3085 38 29.7993 38H8.20071C3.69149 38 0 34.3085 0 29.7993V8.2007C0 3.69149 3.69149 0 8.20071 0H29.7993C34.3085 0 38 3.69149 38 8.2007Z" fill="black"/>
<path d="M19.1179 20.6869L30.6366 10.8272C30.4007 10.6306 30.1098 10.5127 29.7953 10.5127H8.43652C8.12202 10.5127 7.83502 10.6306 7.59521 10.8272L19.1179 20.6869Z" fill="white"/>
<path d="M31.199 26.0294C31.2265 25.9036 31.2461 25.77 31.2461 25.6324V12.376L24.3467 18.2808L31.199 26.0294Z" fill="white"/>
<path d="M23.1592 19.2949L19.1139 22.7544L15.0686 19.2949L8.05908 27.2283C8.18095 27.2637 8.3028 27.2912 8.43254 27.2912H29.7913C29.9211 27.2912 30.0469 27.2637 30.1648 27.2283L23.1592 19.2949Z" fill="white"/>
<path d="M13.8892 18.2808L6.98975 12.376V25.6324C6.98975 25.77 7.0094 25.8997 7.03692 26.0294L13.8892 18.2808Z" fill="white"/>
</svg>
