<svg width="38" height="38" viewBox="0 0 38 38" fill="none" xmlns="http://www.w3.org/2000/svg">
<path d="M38 8.2007V29.7993C38 34.3085 34.3085 38 29.7993 38H8.2007C3.69149 38 0 34.3085 0 29.7993V8.2007C0 3.69149 3.69149 0 8.2007 0H29.7993C34.3124 0 38 3.69149 38 8.2007Z" fill="#F3F3F3"/>
<path d="M11.8882 18.6263C11.8882 17.8125 12.0219 17.0302 12.2656 16.295L8.03553 13.0635C7.20995 14.7382 6.74609 16.6252 6.74609 18.6223C6.74609 20.6194 7.21 22.5065 8.03164 24.1773L12.2578 20.9418C12.0219 20.2145 11.8882 19.4361 11.8882 18.6263Z" fill="#F2BA45"/>
<path d="M19.3146 11.2075C21.0837 11.2075 22.6837 11.8365 23.9417 12.8626L27.5978 9.21044C25.3688 7.27231 22.5147 6.07324 19.3146 6.07324C14.3493 6.07324 10.0799 8.91559 8.03564 13.0631L12.2657 16.2946C13.2407 13.3383 16.0162 11.2075 19.3146 11.2075Z" fill="#DB493C"/>
<path d="M19.3146 26.0402C16.0162 26.0402 13.2407 23.9134 12.2657 20.9531L8.03564 24.1807C10.0799 28.3322 14.3493 31.1706 19.3146 31.1706C22.381 31.1706 25.3059 30.0816 27.5035 28.0413L23.4896 24.9355C22.3574 25.6589 20.9303 26.0402 19.3146 26.0402Z" fill="#37A759"/>
<path d="M31.3128 18.6259C31.3128 17.8828 31.1988 17.0848 31.0258 16.3457H19.3145V21.193H26.0566C25.7186 22.8481 24.8026 24.1179 23.4895 24.9435L27.5033 28.0492C29.811 25.9066 31.3128 22.7144 31.3128 18.6259Z" fill="#567BB8"/>
</svg>
