<svg width="38" height="38" viewBox="0 0 38 38" fill="none" xmlns="http://www.w3.org/2000/svg">
<path d="M29.5775 38H8.42252C3.7893 38 0 34.2107 0 29.5775V8.42252C0 3.7893 3.7893 0 8.42252 0H29.5775C34.2107 0 38 3.7893 38 8.42252V29.5775C38 34.2107 34.2107 38 29.5775 38Z" fill="#0083C4"/>
<path d="M21.709 17.2705V12.6064V12.3496H21.9657H29.9722C30.2028 12.3496 30.5166 12.5089 30.7425 12.7704C30.9184 12.9772 31.0467 13.2506 31.0467 13.5667V13.7023L30.9326 13.7783L23.9174 18.5066L23.8509 18.5375C23.8057 18.5542 23.7439 18.5589 23.6868 18.5589C23.6322 18.5589 23.5704 18.5518 23.5228 18.5375L23.4586 18.509L21.8278 17.4821L21.709 17.406V17.2705Z" fill="white"/>
<path d="M22.1107 18.1458L23.5965 19.168L23.6036 19.1728C23.6654 19.2203 23.7629 19.1704 23.7819 19.1609L30.6474 14.5871L31.0467 14.3232V14.8011V23.371C31.0467 23.8773 30.8898 24.2529 30.6378 24.5144C30.3502 24.8163 29.9461 24.9518 29.5206 24.9518H21.9657H21.709V24.6951V18.3574V18.1007H21.9657L22.1107 18.1458Z" fill="white"/>
<path d="M14.268 16.2579C14.0422 16.2579 13.8425 16.3102 13.6689 16.4124C13.4883 16.5194 13.329 16.6834 13.1887 16.9021C13.0437 17.1327 12.9344 17.4061 12.8607 17.7223C12.7846 18.0432 12.7466 18.4069 12.7466 18.811C12.7466 19.2223 12.7846 19.5884 12.8607 19.9093C12.9344 20.2207 13.0437 20.4894 13.1887 20.7128C13.3266 20.9268 13.4835 21.086 13.6594 21.1906C13.8282 21.2905 14.0184 21.3404 14.2323 21.3404V21.3428C14.4534 21.3428 14.6531 21.2929 14.8243 21.1954C15.0002 21.0956 15.1547 20.9434 15.2902 20.7366C15.4305 20.5203 15.5374 20.2564 15.6111 19.9474C15.6848 19.6288 15.7229 19.2651 15.7229 18.8515C15.7229 18.4188 15.6872 18.0361 15.6135 17.7033C15.5422 17.3823 15.44 17.1089 15.3021 16.8831C15.1713 16.6715 15.0216 16.5123 14.8481 16.41C14.6769 16.3054 14.4867 16.2555 14.268 16.2579Z" fill="white"/>
<path fill-rule="evenodd" clip-rule="evenodd" d="M21.3449 30.7396V6.89833V6.58691L21.0406 6.64634L7.16231 9.33261L6.95312 9.37302V9.5846V27.8298V28.0367L7.15756 28.0794L21.0358 30.9892L21.3449 31.0534V30.7396ZM14.3059 14.3937C14.8051 14.3937 15.2592 14.496 15.6657 14.7028C16.0698 14.9072 16.4264 15.2139 16.733 15.6204C17.0349 16.0221 17.2632 16.4833 17.4105 17.0087C17.5579 17.5269 17.634 18.1046 17.634 18.7417C17.634 19.3954 17.558 19.9897 17.4058 20.5199C17.2489 21.0595 17.0159 21.5349 16.7045 21.9462C16.386 22.3646 16.0175 22.6784 15.6015 22.89C15.1831 23.1015 14.7171 23.2061 14.206 23.2061C13.7044 23.2061 13.248 23.1039 12.8391 22.8995C12.4303 22.695 12.0689 22.3907 11.7551 21.9842C11.4461 21.5849 11.2131 21.126 11.061 20.6078C10.9088 20.0943 10.8328 19.5286 10.8328 18.9033C10.8328 18.2448 10.9088 17.6482 11.0634 17.1133C11.2179 16.5713 11.4532 16.0911 11.767 15.6727C12.0856 15.2495 12.4564 14.9286 12.8819 14.717C13.3051 14.5007 13.7805 14.3937 14.3059 14.3937Z" fill="white"/>
</svg>
