<svg width="37" height="40" viewBox="0 0 37 40" fill="none" xmlns="http://www.w3.org/2000/svg">
<path d="M18.534 0.396973C8.34676 0.396973 0.0874023 9.19885 0.0874023 20.0552C0.0874023 30.9116 8.34676 39.7135 18.534 39.7135C28.7212 39.7135 36.9806 30.9116 36.9806 20.0552C36.9764 9.19885 28.7212 0.396973 18.534 0.396973Z" fill="#1581BA"/>
<path d="M20.7544 18.5933V14.5199V14.2971H20.9635H27.5208C27.709 14.2971 27.9683 14.4353 28.1523 14.667C28.2945 14.8453 28.399 15.0859 28.399 15.3623V15.4826L28.307 15.5494L22.561 19.6807L22.5067 19.7075C22.469 19.7208 22.4188 19.7253 22.3728 19.7253C22.3268 19.7253 22.2766 19.7208 22.239 19.7075L22.1846 19.6807L20.8506 18.7849L20.7544 18.7181V18.5933Z" fill="white"/>
<path d="M21.0806 19.3556L22.2976 20.2469L22.3059 20.2513C22.3561 20.2915 22.4356 20.2513 22.4523 20.2424L28.077 16.2493L28.4032 16.0176V16.4365V23.9191C28.4032 24.3603 28.2735 24.6901 28.0686 24.9174C27.8303 25.1803 27.4999 25.3007 27.1528 25.3007H20.9635H20.7544V25.0778V19.5427V19.3199H20.9635L21.0806 19.3556Z" fill="white"/>
<path d="M14.6574 17.7065C14.4733 17.7065 14.3102 17.7511 14.1639 17.8402C14.0175 17.9338 13.8837 18.0764 13.7708 18.2681C13.6537 18.4686 13.5617 18.7093 13.5031 18.9811C13.4404 19.2619 13.4111 19.5783 13.4111 19.9304C13.4111 20.2913 13.4404 20.6078 13.5031 20.8885C13.5617 21.1604 13.6537 21.3921 13.7708 21.5882C13.8837 21.7754 14.0133 21.9135 14.1555 22.0027C14.2935 22.0918 14.4482 22.1319 14.6239 22.1319C14.8037 22.1319 14.9668 22.0873 15.109 22.0027C15.2512 21.9135 15.3808 21.7798 15.4896 21.6016C15.6067 21.4099 15.6945 21.1827 15.753 20.9108C15.8116 20.6345 15.845 20.3136 15.845 19.9526C15.845 19.5738 15.8158 19.2396 15.7572 18.9499C15.6987 18.6691 15.615 18.4285 15.5021 18.2324C15.3976 18.0452 15.2721 17.9115 15.1299 17.8224C14.9919 17.7511 14.833 17.7065 14.6574 17.7065Z" fill="white"/>
<path fill-rule="evenodd" clip-rule="evenodd" d="M20.4533 30.3544V9.53748V9.26562L20.2024 9.31911L8.83158 11.6633L8.66016 11.699V11.8817V27.8141V27.9969L8.82739 28.0325L20.1982 30.5728L20.4533 30.6307V30.3544ZM14.6863 16.0843C15.0962 16.0843 15.4684 16.1734 15.7987 16.3517C16.1291 16.5299 16.4218 16.7973 16.6728 17.1539C16.9195 17.5059 17.1077 17.907 17.229 18.3661C17.3503 18.8162 17.413 19.3243 17.413 19.8769C17.413 20.4473 17.3503 20.9643 17.2248 21.4322C17.0952 21.9046 16.907 22.3191 16.6477 22.6756C16.3884 23.0411 16.0873 23.3174 15.7444 23.5001C15.4015 23.6873 15.0209 23.7764 14.6027 23.7764C14.1929 23.7764 13.8165 23.6873 13.4819 23.509C13.1474 23.3308 12.8504 23.0634 12.5953 22.7113C12.3402 22.3637 12.1521 21.9626 12.0266 21.508C11.9011 21.0623 11.8384 20.5632 11.8384 20.0195C11.8384 19.4446 11.9011 18.9232 12.0266 18.4552C12.1521 17.9828 12.3444 17.5639 12.6037 17.1984C12.863 16.8285 13.1683 16.5478 13.5154 16.365C13.8667 16.1734 14.2556 16.0798 14.6863 16.0843Z" fill="white"/>
</svg>
