<svg width="38" height="38" viewBox="0 0 38 38" fill="none" xmlns="http://www.w3.org/2000/svg">
<path d="M38 8.20071V29.7992C38 34.3084 34.3085 37.9999 29.7993 37.9999H8.20073C3.69153 37.9999 0 34.3084 0 29.7992V8.20071C0 3.69151 3.69153 0 8.20073 0H29.7993C34.3085 0 38 3.68758 38 8.20071Z" fill="#7D338A"/>
<path d="M28.046 13.2129C27.932 13.2443 27.7 13.4409 27.3383 13.7868L26.0724 15.1078L24.4881 16.865C23.9338 17.4901 23.4346 18.1152 22.9746 18.7363C22.5147 19.3496 22.1058 19.8921 21.7559 20.3678C21.4021 20.8357 21.1819 21.1973 21.0797 21.4568C21.0561 21.5865 21.0443 21.96 21.0443 22.5694C21.0443 23.1905 21.0522 23.8628 21.06 24.59C21.0718 25.3213 21.0837 26.0053 21.0955 26.6579C21.1072 27.3026 21.1229 27.7351 21.1465 27.9474C21.2369 27.9788 21.461 27.9946 21.8266 27.9946H22.9707C23.3835 27.9946 23.7727 28.0063 24.1383 28.0221C24.5039 28.0417 24.7515 28.0653 24.8891 28.1086L24.8538 29.8344C24.7241 29.8344 24.4253 29.8265 23.9614 29.8069C23.5014 29.7951 22.9549 29.7872 22.3416 29.7872H18.6855C18.4378 29.7872 18.0605 29.7951 17.573 29.8069C17.0855 29.8265 16.5627 29.8423 16.0005 29.858C15.4383 29.8737 14.9115 29.8855 14.4162 29.8855H13.3036L13.5041 28.2422H14.196C14.5302 28.2422 14.8722 28.2344 15.2182 28.2226C15.5681 28.2147 15.8983 28.1675 16.2128 28.085C16.5312 28.0024 16.7552 27.8491 16.9046 27.6329C16.9715 27.5346 17.0147 27.2044 17.0344 26.6304C17.054 26.0604 17.0659 25.4039 17.0659 24.6726C17.0659 23.9336 17.0737 23.2337 17.0777 22.5654C17.0855 21.901 17.0933 21.4529 17.1091 21.2288C17.1327 21.0912 16.9991 20.761 16.7003 20.2303C16.4015 19.6995 16.0359 19.0509 15.5995 18.2803L14.1842 15.7761L12.7178 13.1814L11.3734 11.1293C10.9645 10.516 10.6422 10.0953 10.4102 9.8752H6.87598V7.69727H18.5165V7.86237H18.548L18.5165 8.23979V9.88307H14.9626L16.2993 12.3873L17.6674 14.9466L18.8821 17.2149L19.8257 18.9958L24.5668 12.9809H21.6852L21.3156 10.7951H31.592L31.5095 10.9406H31.5605L30.7939 12.3991H30.7586L30.452 12.9809H28.6593C28.5492 13.0517 28.4391 13.0989 28.3369 13.1185C28.2307 13.1539 28.1325 13.1814 28.046 13.2129Z" fill="white"/>
</svg>
