<svg width="38" height="40" viewBox="0 0 38 40" fill="none" xmlns="http://www.w3.org/2000/svg">
<path d="M37.3493 20.0552C37.3493 30.9116 29.0899 39.7135 18.9027 39.7135C8.71543 39.7135 0.456055 30.9116 0.456055 20.0552C0.456055 9.19885 8.71543 0.396973 18.9027 0.396973C29.0899 0.396973 37.3493 9.19885 37.3493 20.0552Z" fill="#81348F"/>
<path d="M25.5645 15.563C25.4809 15.5897 25.3011 15.7457 25.0292 16.0265L24.0716 17.0916L22.8756 18.5044C22.4574 19.008 22.081 19.5116 21.7297 20.0107C21.3826 20.5054 21.0731 20.9421 20.8097 21.3254C20.542 21.7042 20.3747 21.9939 20.2995 22.2034C20.2827 22.3103 20.2744 22.6089 20.2744 23.0992C20.2744 23.5983 20.2827 24.142 20.2869 24.7258C20.2953 25.3141 20.3036 25.8623 20.312 26.3926C20.3204 26.914 20.3329 27.2572 20.3496 27.431C20.4165 27.4578 20.588 27.4667 20.864 27.4667H21.7297C22.0433 27.4667 22.3361 27.4756 22.6121 27.489C22.8881 27.5023 23.0763 27.5246 23.1808 27.5603L23.1557 28.9507C23.0554 28.9507 22.8337 28.9463 22.4824 28.9285C22.1353 28.9195 21.7213 28.9106 21.2571 28.9106H18.497C18.3088 28.9106 18.0245 28.9151 17.6565 28.9285C17.2884 28.9463 16.8912 28.9552 16.4688 28.9686C16.0464 28.9819 15.645 28.9908 15.2728 28.9908H14.4322L14.5827 27.6672H15.1055C15.3606 27.6672 15.6157 27.6628 15.8791 27.6494C16.1426 27.6449 16.3935 27.6048 16.6277 27.538C16.8661 27.4711 17.0375 27.3463 17.1505 27.1725C17.2006 27.0968 17.2341 26.8249 17.2466 26.3659C17.2634 25.9068 17.2717 25.3765 17.2717 24.7882C17.2717 24.1955 17.2801 23.6295 17.2801 23.0902C17.2885 22.5555 17.2926 22.1945 17.3052 22.0117C17.3261 21.9003 17.2215 21.6374 16.9957 21.2095C16.7699 20.7817 16.4939 20.2603 16.1635 19.6408L15.0971 17.6264L13.9889 15.5362L12.9727 13.8828C12.6632 13.3881 12.4206 13.0494 12.245 12.8756H9.57275V11.1152H18.3674V11.2489H18.3925L18.3674 11.552V12.8756H15.6826L16.6904 14.8945L17.7234 16.9579L18.6392 18.7851L19.3543 20.2202L22.9341 15.3758H20.7553L20.4751 13.6154H28.241L28.1783 13.7313H28.2159L27.6388 14.9078H27.6137L27.3837 15.3758H26.0287C25.9451 15.4337 25.8656 15.4694 25.7862 15.4872C25.7025 15.5184 25.6315 15.5362 25.5645 15.563Z" fill="white"/>
</svg>
