<svg width="50" height="53" viewBox="0 0 50 53" fill="none" xmlns="http://www.w3.org/2000/svg">
<path d="M24.6384 0C11.1731 0 0.260155 10.8648 0.233445 24.2989C0.221791 30.2859 2.37602 35.7703 5.95748 40.016C6.34646 40.4772 6.47806 41.1017 6.30226 41.6783L3.83434 49.764C3.16321 51.9627 5.57238 53.8227 7.53721 52.6231L15.6252 47.6846C16.0671 47.4147 16.6047 47.3503 17.0976 47.5102C19.4442 48.2703 21.9466 48.6856 24.5447 48.6952C37.875 48.7452 48.9879 37.7481 49.0419 24.4486C49.0972 10.9559 38.1503 0 24.6384 0ZM24.6379 45.7776C22.1287 45.7776 19.671 45.3498 17.3322 44.5063L16.8781 44.3425C16.3294 44.1444 15.7204 44.2059 15.2227 44.5102L7.63287 49.1444C7.39589 49.2888 7.10598 49.0649 7.18659 48.7999L9.55448 41.0421C9.75164 40.3958 9.59333 39.6933 9.13733 39.1938L8.75272 38.7723C5.14552 34.8203 3.15883 29.6977 3.15883 24.3484C3.15883 12.532 12.7945 2.9186 24.6384 2.9186C36.4696 2.9186 46.1184 12.5455 46.1179 24.3488C46.117 36.1647 36.4817 45.7776 24.6379 45.7776Z" fill="#F4AE22"/>
<path d="M18.8605 23.1327C20.0258 21.9701 20.0258 20.085 18.8605 18.9223C17.6951 17.7597 15.8057 17.7597 14.6403 18.9223C13.475 20.085 13.475 21.9701 14.6403 23.1327C15.8057 24.2954 17.6951 24.2954 18.8605 23.1327Z" fill="#F4AE22"/>
<path d="M35.3871 21.6223C35.7186 20.0116 34.6785 18.4378 33.064 18.1071C31.4495 17.7764 29.872 18.8141 29.5405 20.4249C29.2091 22.0356 30.2492 23.6094 31.8637 23.9401C33.4782 24.2707 35.0557 23.233 35.3871 21.6223Z" fill="#F4AE22"/>
<path d="M29.4735 32.3067H19.7355C19.0659 32.3067 18.5234 31.7655 18.5234 31.0974C18.5234 30.4297 19.0663 29.8881 19.7355 29.8881H29.4735C30.1427 29.8881 30.6856 30.4293 30.6856 31.0974C30.6856 31.765 30.1427 32.3067 29.4735 32.3067Z" fill="#F4AE22"/>
</svg>
