<svg width="49" height="53" viewBox="0 0 49 53" fill="none" xmlns="http://www.w3.org/2000/svg">
<path d="M24.5954 0C11.1301 0 0.217186 10.8648 0.190477 24.2989C0.178822 30.2859 2.33304 35.7703 5.91449 40.016C6.30348 40.4772 6.43508 41.1017 6.25929 41.6783L3.79135 49.764C3.12022 51.9627 5.52939 53.8227 7.49421 52.6231L15.5822 47.6846C16.0241 47.4147 16.5617 47.3503 17.0546 47.5102C19.4011 48.2703 21.9036 48.6856 24.5016 48.6952C37.8319 48.7452 48.9448 37.7481 48.9987 24.4486C49.0546 10.9559 38.1073 0 24.5954 0ZM24.5949 45.7776C22.0857 45.7776 19.6279 45.3498 17.2892 44.5063L16.8351 44.3425C16.2864 44.1444 15.6774 44.2059 15.1797 44.5102L7.58989 49.1444C7.3529 49.2888 7.06299 49.0649 7.1436 48.7999L9.51148 41.0421C9.70864 40.3958 9.55033 39.6933 9.09434 39.1938L8.70973 38.7723C5.10254 34.8203 3.11587 29.6977 3.11587 24.3484C3.11587 12.532 12.7516 2.9186 24.5954 2.9186C36.4265 2.9186 46.0753 12.5455 46.0748 24.3488C46.0743 36.1647 36.4387 45.7776 24.5949 45.7776Z" fill="#FF1E32"/>
<path d="M21.8269 21.048C21.3238 20.5378 20.5017 20.5315 19.9903 21.0334C19.426 21.5877 18.8879 21.8673 18.3906 21.8668C17.8933 21.8673 17.3557 21.5877 16.7909 21.0334C16.28 20.5315 15.4574 20.5378 14.9542 21.048C14.4511 21.5581 14.4574 22.3784 14.9688 22.8803C16.0367 23.9288 17.1828 24.4593 18.3789 24.4593C18.3828 24.4593 18.3867 24.4588 18.3901 24.4588C18.394 24.4588 18.3979 24.4593 18.4013 24.4593C19.5974 24.4593 20.744 23.9288 21.8114 22.8803C22.3237 22.3784 22.3301 21.5581 21.8269 21.048Z" fill="#FF1E32"/>
<path d="M34.8863 21.048C34.3832 20.5378 33.561 20.5315 33.0497 21.0334C32.4854 21.5877 31.9478 21.8673 31.45 21.8668C30.9528 21.8673 30.4152 21.5877 29.8504 21.0334C29.3396 20.5315 28.5169 20.5378 28.0138 21.048C27.5107 21.5581 27.517 22.3784 28.0284 22.8803C29.0963 23.9288 30.2423 24.4593 31.4384 24.4593C31.4423 24.4593 31.4461 24.4588 31.4495 24.4588C31.4534 24.4588 31.4573 24.4593 31.4607 24.4593C32.6568 24.4593 33.8034 23.9288 34.8707 22.8803C35.3831 22.3784 35.3894 21.5581 34.8863 21.048Z" fill="#FF1E32"/>
<path d="M21.0235 19.2572C20.8768 19.2572 20.7277 19.232 20.5816 19.1797L14.8083 17.0954C14.1338 16.8517 13.7851 16.109 14.0289 15.436C14.2727 14.7631 15.0172 14.4152 15.6922 14.6584L21.4654 16.7427C22.14 16.9864 22.4887 17.7291 22.2449 18.4021C22.0535 18.9292 21.5548 19.2572 21.0235 19.2572Z" fill="#FF1E32"/>
<path d="M28.8188 19.2572C28.2875 19.2572 27.7888 18.9292 27.5975 18.4021C27.3532 17.7291 27.7024 16.9864 28.3769 16.7427L34.1498 14.6584C34.8238 14.4152 35.5688 14.7631 35.813 15.436C36.0573 16.109 35.7082 16.8517 35.0336 17.0954L29.2607 19.1797C29.1145 19.232 28.9654 19.2572 28.8188 19.2572Z" fill="#FF1E32"/>
<path d="M33.2196 35.6715C32.7972 35.6715 32.3824 35.4661 32.1328 35.0872C30.5322 32.6565 27.8365 31.2054 24.9218 31.2054C22.0066 31.2054 19.3109 32.6565 17.7103 35.0872C17.3164 35.6856 16.5112 35.8517 15.912 35.4588C15.3127 35.0659 15.1457 34.2626 15.5395 33.6647C17.6219 30.5024 21.1291 28.6143 24.9218 28.6143C28.7145 28.6143 32.2217 30.5024 34.3041 33.6647C34.6979 34.2626 34.5308 35.0664 33.9316 35.4588C33.7116 35.6027 33.4639 35.6715 33.2196 35.6715Z" fill="#FF1E32"/>
</svg>
