<svg width="49" height="53" viewBox="0 0 49 53" fill="none" xmlns="http://www.w3.org/2000/svg">
<path d="M24.4039 0C10.9386 0 0.025294 10.8648 -0.00092951 24.2989C-0.0125844 30.2859 2.14163 35.7703 5.72357 40.0165C6.11255 40.4777 6.24415 41.1022 6.06836 41.6788L3.60043 49.7645C2.92931 51.9632 5.33847 53.8232 7.30329 52.6235L15.3913 47.6851C15.8332 47.4152 16.3708 47.3508 16.8637 47.5107C19.2102 48.2708 21.7126 48.686 24.3107 48.6957C37.641 48.7456 48.7539 37.7485 48.8078 24.4491C48.8627 10.9559 37.9158 0 24.4039 0ZM24.4035 45.7776C21.8943 45.7776 19.4365 45.3498 17.0978 44.5063L16.6437 44.3425C16.095 44.1444 15.4855 44.2059 14.9882 44.5102L7.39847 49.1444C7.16149 49.2888 6.87157 49.0649 6.95219 48.7999L9.32007 41.0421C9.51724 40.3958 9.35892 39.6933 8.90293 39.1938L8.51831 38.7723C4.91112 34.8203 2.92445 29.6977 2.92445 24.3484C2.92445 12.532 12.5601 2.9186 24.4039 2.9186C36.2351 2.9186 45.8839 12.5455 45.8834 24.3488C45.8829 36.1647 36.2473 45.7776 24.4035 45.7776Z" fill="#03984F"/>
<path d="M17.1161 27.7548C16.6596 27.7548 16.2891 28.1245 16.2891 28.5799C16.2891 28.5809 16.2891 28.5819 16.2891 28.5824C16.2891 32.907 19.803 36.4128 24.1377 36.4128C28.4723 36.4128 31.9863 32.907 31.9863 28.5824C31.9863 28.5814 31.9863 28.5804 31.9863 28.5799C31.9863 28.1245 31.6157 27.7548 31.1593 27.7548H17.1161Z" fill="#03984F"/>
<path d="M15.745 22.813C15.1549 22.813 14.6766 22.3357 14.6766 21.7471C14.6766 21.1923 14.4746 20.7679 14.0584 20.4491C13.649 20.1352 13.0556 19.9554 12.4311 19.9554C11.5973 19.9554 10.1856 20.3328 10.1856 21.7471C10.1856 22.3357 9.70723 22.813 9.1172 22.813C8.52717 22.813 8.04883 22.3357 8.04883 21.7471C8.04883 19.171 10.2535 17.8232 12.4311 17.8232C14.6091 17.8232 16.8138 19.171 16.8138 21.7471C16.8133 22.3357 16.335 22.813 15.745 22.813Z" fill="#03984F"/>
<path d="M39.6824 22.813C39.0924 22.813 38.6141 22.3357 38.6141 21.7471C38.6141 21.1923 38.4121 20.7679 37.9959 20.4491C37.5865 20.1352 36.9936 19.9554 36.3686 19.9554C35.5348 19.9554 34.1231 20.3328 34.1231 21.7471C34.1231 22.3357 33.6447 22.813 33.0547 22.813C32.4647 22.813 31.9863 22.3357 31.9863 21.7471C31.9863 19.171 34.191 17.8232 36.3686 17.8232C38.5466 17.8232 40.7513 19.171 40.7513 21.7471C40.7508 22.3357 40.2725 22.813 39.6824 22.813Z" fill="#03984F"/>
</svg>
