<svg width="49" height="53" viewBox="0 0 49 53" fill="none" xmlns="http://www.w3.org/2000/svg">
<path d="M24.5397 0C11.0744 0 0.161522 10.8648 0.134813 24.2989C0.123158 30.2859 2.27738 35.7703 5.85884 40.016C6.24783 40.4772 6.37943 41.1017 6.20364 41.6783L3.73571 49.764C3.06458 51.9627 5.47375 53.8227 7.43857 52.6231L15.5266 47.6846C15.9685 47.4147 16.5061 47.3503 16.999 47.5102C19.3455 48.2703 21.8479 48.6856 24.446 48.6952C37.7763 48.7452 48.8893 37.7481 48.9432 24.4486C48.9986 10.9559 38.0517 0 24.5397 0ZM24.5393 45.7776C22.0301 45.7776 19.5723 45.3498 17.2336 44.5063L16.7795 44.3425C16.2308 44.1444 15.6218 44.2059 15.124 44.5102L7.53424 49.1444C7.29726 49.2888 7.00734 49.0649 7.08795 48.7999L9.45585 41.0421C9.65301 40.3958 9.49471 39.6933 9.03871 39.1938L8.65407 38.7723C5.04687 34.8203 3.0602 29.6977 3.0602 24.3484C3.0602 12.532 12.6959 2.9186 24.5397 2.9186C36.3709 2.9186 46.0198 12.5455 46.0193 24.3488C46.0188 36.1647 36.3831 45.7776 24.5393 45.7776Z" fill="#F47811"/>
<path d="M32.9094 36.643C32.5151 36.643 32.128 36.4511 31.8954 36.0974C30.2788 33.642 27.5559 32.1764 24.6115 32.1764C21.6672 32.1764 18.9443 33.642 17.3282 36.0974C16.9606 36.6556 16.2093 36.8111 15.6494 36.4443C15.09 36.0776 14.9341 35.328 15.3017 34.7699C17.3675 31.6318 20.848 29.7582 24.6115 29.7582C28.3751 29.7582 31.8551 31.6318 33.9214 34.7699C34.289 35.328 34.1332 36.078 33.5737 36.4448C33.3688 36.5785 33.1381 36.643 32.9094 36.643Z" fill="#F47811"/>
<path d="M19.687 21.4044C20.4648 19.9546 19.9173 18.1503 18.4641 17.3744C17.011 16.5984 15.2025 17.1447 14.4248 18.5944C13.6471 20.0442 14.1946 21.8485 15.6477 22.6244C17.1008 23.4003 18.9093 22.8541 19.687 21.4044Z" fill="#F47811"/>
<path d="M35.578 20.9409C36.0991 19.381 35.2541 17.695 33.6906 17.1751C32.1272 16.6551 30.4373 17.4982 29.9162 19.0581C29.3951 20.6181 30.2401 22.3041 31.8036 22.824C33.367 23.344 35.0569 22.5009 35.578 20.9409Z" fill="#F47811"/>
</svg>
