<svg width="49" height="53" viewBox="0 0 49 53" fill="none" xmlns="http://www.w3.org/2000/svg">
<path d="M24.5211 0C11.0558 0 0.142967 10.8648 0.116258 24.2989C0.104603 30.2859 2.25882 35.7703 5.84027 40.016C6.22925 40.4772 6.36086 41.1017 6.18506 41.6783L3.71714 49.764C3.04601 51.9627 5.45517 53.8227 7.41999 52.6231L15.508 47.6846C15.9499 47.4147 16.4875 47.3503 16.9804 47.5102C19.3269 48.2703 21.8293 48.6856 24.4274 48.6952C37.7577 48.7452 48.8706 37.7481 48.9245 24.4486C48.9804 10.9559 38.033 0 24.5211 0ZM24.5211 45.7776C22.0119 45.7776 19.5542 45.3498 17.2154 44.5063L16.7614 44.3425C16.2126 44.1444 15.6037 44.2059 15.1059 44.5102L7.51615 49.1444C7.27916 49.2888 6.98925 49.0649 7.06986 48.7999L9.43775 41.0421C9.63491 40.3958 9.47659 39.6933 9.0206 39.1938L8.63599 38.7723C5.0288 34.8203 3.04212 29.6977 3.04212 24.3484C3.04212 12.532 12.6778 2.9186 24.5216 2.9186C36.3528 2.9186 46.0016 12.5455 46.0011 24.3488C46.0001 36.1647 36.3644 45.7776 24.5211 45.7776Z" fill="#07BF4F"/>
<path d="M16.054 30.5082C16.4483 30.5082 16.8353 30.7001 17.0679 31.0538C18.6846 33.5092 21.4075 34.9748 24.3518 34.9748C27.2961 34.9748 30.019 33.5092 31.6352 31.0538C32.0028 30.4956 32.7545 30.3401 33.314 30.7069C33.8734 31.0736 34.0293 31.8232 33.6617 32.3813C31.5958 35.5194 28.1154 37.393 24.3518 37.393C20.5882 37.393 17.1082 35.5194 15.0419 32.3813C14.6743 31.8232 14.8302 31.0732 15.3896 30.7064C15.5946 30.5722 15.8257 30.5082 16.054 30.5082Z" fill="#07BF4F"/>
<path d="M18.8957 22.6434C20.0611 21.4807 20.0611 19.5957 18.8957 18.433C17.7303 17.2703 15.8409 17.2704 14.6755 18.433C13.5101 19.5957 13.5101 21.4807 14.6755 22.6434C15.8409 23.8061 17.7303 23.8061 18.8957 22.6434Z" fill="#07BF4F"/>
<path d="M34.6017 22.6436C35.7671 21.4809 35.7671 19.5958 34.6017 18.4332C33.4364 17.2705 31.5469 17.2705 30.3816 18.4332C29.2162 19.5958 29.2162 21.4809 30.3816 22.6436C31.5469 23.8062 33.4364 23.8062 34.6017 22.6436Z" fill="#07BF4F"/>
</svg>
